<svg width="53" height="46" viewBox="0 0 53 46" fill="none" xmlns="http://www.w3.org/2000/svg">
    <rect width="53" height="46" rx="6" fill="#005FFF" />
    <rect x="0.5" y="0.5" width="52" height="45" rx="5.5" stroke="black" stroke-opacity="0.02" />
    <path fill-rule="evenodd" clip-rule="evenodd"
        d="M33.1492 18.5857L45.9523 17.5772C46.7974 17.5107 47.3295 18.5689 46.8354 19.3335L37.8791 33.1949C37.6913 33.4855 37.3889 33.658 37.0668 33.658H16.9823C16.6607 33.658 16.3587 33.4861 16.1707 33.196L7.1906 19.3347C6.6953 18.5701 7.2274 17.5104 8.0732 17.5772L20.8373 18.5858L26.289 11.8137C26.6885 11.3174 27.3885 11.3203 27.7847 11.82L33.1492 18.5857ZM35.8306 31.4604L27.5215 28.0101V31.4604H35.8306ZM26.521 31.4604V28.0101L18.2119 31.4604H26.521ZM25.5622 27.1858L17.0727 30.7069L10.8271 21.0607L25.5622 27.1858ZM28.4629 27.1858L36.9524 30.7069L43.198 21.0607L28.4629 27.1858ZM26.5293 26.3806V14.7708L19.5879 23.4773L26.5293 26.3806ZM27.5215 26.3808V14.7725L34.463 23.4775L27.5215 26.3808ZM17.5523 22.6747L19.1494 20.6807L11.3467 20.0594L17.5523 22.6747ZM36.4149 22.6747L34.8179 20.6807L42.6206 20.0594L36.4149 22.6747Z"
        fill="white" />
</svg>