<svg width="17" height="12" viewBox="0 0 17 12" fill="none" xmlns="http://www.w3.org/2000/svg" fill="#000">
  <path fill-rule="evenodd" clip-rule="evenodd" d="M9.4 8.9a.8.8 0 01-.4-1l.9-2.2c0-.2.3-.4.5-.5h.6c.4.3 1.6.8 2.4.4.5-.1.8-.5 1-1 .3-.6.3-1 0-1.5-.3-.9-1.5-1.3-1.5-1.3-.1 0-1.2-.4-2.4 0A.8.8 0 119.9.5c.7-.3 1.6-.4 2.4-.4l1 .2h.1l1 .5A4 4 0 0116 2.4l.2 1.3c0 .5 0 1-.3 1.5l-.8 1.3a3 3 0 01-1.1.7c-.8.2-1.6.2-2.6 0l-.3-.2-.6 1.5c-.2.4-.7.6-1 .4h-.1zm.2 2.4c-.3.6-1 .9-1.5.6a1.2 1.2 0 011-2.1c.5.2.8 1 .5 1.5zm-5.4-3c-.4.1-1 0-1.1-.5l-3-6.5C-.1 1 0 .5.5.3c.4-.2.8 0 1 .4l3 6.4c.2.5 0 1-.3 1.1zm2.2 1.9c.3.6 0 1.3-.6 1.6-.6.2-1.3 0-1.6-.6-.2-.6 0-1.4.6-1.6.6-.3 1.3 0 1.6.6z" />
</svg>