<svg width="13" height="16" viewBox="0 0 13 16" fill="none" xmlns="http://www.w3.org/2000/svg">
  <path d="M4 .4h-.3c-.2.2-.3.5-.2.7L4 2C3 2.7 2.1 3.9 2.1 5.3v.2a1.2 1.2 0 00-2.1.8V10a1.2 1.2 0 002.1.8v.5c0 .7.6 1.3 1.3 1.3h.3v1.6a1.2 1.2 0 002.4 0v-1.6h.6v1.6a1.2 1.2 0 002.4 0v-1.6h.3c.7 0 1.3-.6 1.3-1.3v-.5c.2.3.5.4.9.4.6 0 1.2-.5 1.2-1.2V6.3a1.2 1.2 0 00-2.1-.8v-.2c0-1.4-.8-2.6-2-3.3l.5-1c.1-.1 0-.4-.1-.5a.4.4 0 00-.6.2l-.5.9a4.5 4.5 0 00-3.2 0l-.5-1L4 .5z" fill="#fff"/>
  <path fill-rule="evenodd" clip-rule="evenodd" d="M.3 6.3c0-.5.4-.9.9-.9s.9.4.9 1V10c0 .5-.4.9-.9.9a.9.9 0 01-.9-.9V6.3zm10.4 0c0-.5.4-.9.9-.9s.9.4.9 1V10c0 .5-.4.9-1 .9a.9.9 0 01-.8-.9V6.3zM4 10.5c0-.5.4-.9 1-.9.4 0 .8.4.8 1v3.6c0 .5-.4 1-.9 1a.9.9 0 01-.9-1v-3.7zm3 0c0-.5.4-.9.9-.9s.9.4.9 1v3.6c0 .5-.4 1-1 1a.9.9 0 01-.8-1v-3.7z" fill="#A4C639"/>
  <path fill-rule="evenodd" clip-rule="evenodd" d="M3.9.8H4L4.7 2A4.2 4.2 0 018 2L8.7.8a.1.1 0 01.2 0v.1l-.6 1.2c1.2.6 2 1.8 2 3.2H2.5c0-1.4.8-2.6 2-3.2L3.8.9V.8zM2.4 11.3V5.6h8v5.7c0 .5-.5 1-1 1h-6a1 1 0 01-1-1z" fill="#A4C639"/>
  <path fill-rule="evenodd" clip-rule="evenodd" d="M4.2 3.5c0-.2.2-.4.4-.4.1 0 .3.2.3.4s-.2.3-.3.3a.3.3 0 01-.4-.3zm3.7 0c0-.2.1-.4.3-.4.2 0 .3.2.3.4s-.1.3-.3.3a.3.3 0 01-.3-.3z" fill="#fff"/>
</svg>