<svg width="17" height="8" viewBox="0 0 17 8" fill="none" xmlns="http://www.w3.org/2000/svg">
    <path fill-rule="evenodd" clip-rule="evenodd"
        d="M11.1064 2.37361L16.5443 2.05584C16.9032 2.03487 17.1292 2.36832 16.9193 2.60927L13.1153 6.97709C13.0356 7.06868 12.9071 7.12302 12.7703 7.12302H4.2398C4.1032 7.12302 3.97493 7.06885 3.89508 6.97744L0.0809532 2.60962C-0.129416 2.36871 0.0965833 2.0348 0.455821 2.05584L5.87714 2.37364L8.19265 0.239701C8.36233 0.0833372 8.65964 0.0842475 8.82792 0.241696L11.1064 2.37361ZM12.2452 6.43052L8.71604 5.34329V6.43052H12.2452ZM8.29131 6.43052V5.34329L4.76217 6.43052H8.29131ZM7.88408 5.08357L4.27832 6.1931L1.62562 3.1535L7.88408 5.08357ZM9.11593 5.08357L12.7217 6.1931L15.3744 3.1535L9.11593 5.08357ZM8.29471 4.82987V1.17154L5.34648 3.91501L8.29471 4.82987ZM8.71604 4.82987V1.172L11.6643 3.91501L8.71604 4.82987ZM4.48189 3.66212L5.16023 3.03379L1.84618 2.83801L4.48189 3.66212ZM12.4934 3.66212L11.8151 3.03379L15.1292 2.83801L12.4934 3.66212Z"
        fill="#006CFF" />
</svg>