<svg width="16" height="16" viewBox="0 0 16 16" fill="none" xmlns="http://www.w3.org/2000/svg">
  <path d="M3.3.4h8.3l1.2.2A3.3 3.3 0 0115 4v8.9a3.3 3.3 0 01-3.4 2.6H3.2A3.3 3.3 0 010 12.1V3.8l.3-1.5A3.3 3.3 0 013.1.5h.2z" fill="url(#paint0_linear)"/>
  <path d="M12.7 12.7a2.3 2.3 0 00-.7-.7l-.8-.3-.6.1-.5.3c-.3 0-.5.2-.7.3a4.7 4.7 0 01-1.8.3 7 7 0 01-5.4-2.6 9 9 0 01-.7-.9L0 7.5V3.8C0 1.9 1.5.4 3.3.4h3l2.2 2.3c5 3.3 3.3 7 3.3 7s1.4 1.6.9 3z" fill="url(#paint1_linear)"/>
  <path d="M8.5 2.7c5 3.3 3.3 7 3.3 7s1.4 1.6.9 3c0 0-.6-1-1.6-1s-1.5 1-3.4 1c-4.2 0-6.2-3.5-6.2-3.5C5.3 11.7 8 10 8 10 6.2 9 2.6 4.2 2.6 4.2 5.7 7 7 7.6 7 7.6c-.8-.7-3-4-3-4 1.7 1.9 5.4 4.5 5.4 4.5 1-2.9-1-5.4-1-5.4z" fill="#fff"/>
  <defs>
    <linearGradient id="paint0_linear" x1=".9" y1="-1.5" x2="-1.9" y2="14.6" gradientUnits="userSpaceOnUse">
      <stop stop-color="#FAAE42"/>
      <stop offset="1" stop-color="#EF3E31"/>
    </linearGradient>
    <linearGradient id="paint1_linear" x1="1.5" y1="-.3" x2="-.4" y2="11.5" gradientUnits="userSpaceOnUse">
      <stop stop-color="#E39F3A"/>
      <stop offset="1" stop-color="#D33929"/>
    </linearGradient>
  </defs>
</svg>