<svg width="18" height="16" viewBox="0 0 18 16" fill="none" xmlns="http://www.w3.org/2000/svg">
  <path fill-rule="evenodd" clip-rule="evenodd" d="M14 5l-.5-.2.1-.4c.4-2 .1-3.7-.8-4.2S10.5.2 9 1.5l-.4.4-.3-.3C6.7.3 5.2-.4 4.3.2c-1 .5-1.2 2-.8 4l.1.5L3 5c-1.8.7-3 1.7-3 2.7 0 1 1.2 2.1 3.1 2.8l.5.1-.1.6c-.4 1.9-.1 3.4.8 4 .9.4 2.4-.1 4-1.4l.3-.3.4.4c1.5 1.2 3 1.7 3.8 1.2 1-.5 1.2-2.1.9-4l-.1-.5.3-.1c2-.7 3.2-1.7 3.2-2.8 0-1-1.2-2-3-2.7zm-.4 4.7h-.2l-1-2.1 1-2.1.4.1c1.6.6 2.6 1.4 2.6 2 0 .7-1 1.5-2.8 2zm-.6 3.6a6.2 6.2 0 00-.2-2.6l-2.3.3c-.4.7-1 1.3-1.4 1.8l.4.4c1.3 1 2.4 1.5 3 1.2.2-.2.4-.5.5-1zm-7.2 1c-.5.2-1 .2-1.2 0-.5-.2-.7-1.4-.4-3l.1-.6c.7.1 1.5.3 2.3.3l1.5 1.8a6.2 6.2 0 01-2.2 1.5zM1.4 8.6a6.2 6.2 0 002.4 1.2l.8-2.2-.8-2.1-.6.1C1.7 6.2.7 7 .7 7.6c0 .3.2.6.7 1zM4.2 4C3.9 2.4 4 1.2 4.6.8c.6-.3 1.9.2 3.2 1.4l.2.2-1.4 1.8c-.8 0-1.6.2-2.3.4L4.2 4zM11 5a23.2 23.2 0 011 1.8l.5-1.5-1.5-.3zM8.6 3l1 1.1a21.5 21.5 0 00-2 0l1-1.2zM5 6.7l.4-1 .6-.8c-.6 0-1.1.2-1.6.3l.6 1.5zm1 3.4L4.5 10l.6-1.5.4.9.6.8zm1.5.9l1 1.2 1-1.2a23.2 23.2 0 01-2 0zM12 8.4l.5 1.6-1.6.2a25.5 25.5 0 001-1.8zm-2 2a24 24 0 001.6-2.8A24 24 0 0010 4.9H7l-.8 1.3-.8 1.4.8 1.4.8 1.3a24 24 0 003.1 0zM12.4.7c.6.4.8 1.7.5 3.4v.4l-2.4-.4-1.4-1.8.4-.4c1.2-1 2.4-1.5 3-1.2zm-2.3 6.8a1.5 1.5 0 10-3 0 1.5 1.5 0 003 0z" fill="#00D8FF"/>
</svg>